<?xml version="1.0" encoding="utf-8"?>
<!-- Generator: Adobe Illustrator 17.0.0, SVG Export Plug-In . SVG Version: 6.00 Build 0)  -->
<!DOCTYPE svg PUBLIC "-//W3C//DTD SVG 1.1//EN" "http://www.w3.org/Graphics/SVG/1.1/DTD/svg11.dtd">
<svg version="1.1" id="Layer_1" xmlns="http://www.w3.org/2000/svg" xmlns:xlink="http://www.w3.org/1999/xlink" x="0px" y="0px"
	 width="35px" height="65px" viewBox="0 0 35 65" enable-background="new 0 0 35 65" xml:space="preserve">
<path fill="#FFFFFF" d="M4.375,33.958H29.56c0.505,0.871,1.444,1.458,2.523,1.458c1.611,0,2.917-1.306,2.917-2.917
	s-1.306-2.917-2.917-2.917c-1.079,0-2.019,0.587-2.523,1.458H4.375V19.375H29.56c0.505,0.871,1.444,1.458,2.523,1.458
	c1.611,0,2.917-1.306,2.917-2.917C35,16.306,33.694,15,32.083,15c-1.079,0-2.019,0.587-2.523,1.458H4.375V5.857
	c0.871-0.505,1.458-1.444,1.458-2.523c0-1.611-1.306-2.917-2.917-2.917S0,1.722,0,3.333c0,1.079,0.587,2.019,1.458,2.523v57.268
	h1.458h1.458H29.56c0.505,0.871,1.444,1.458,2.523,1.458c1.611,0,2.917-1.306,2.917-2.917s-1.306-2.917-2.917-2.917
	c-1.079,0-2.019,0.587-2.523,1.458H4.375V48.542H29.56C30.065,49.413,31.004,50,32.083,50C33.694,50,35,48.694,35,47.083
	s-1.306-2.917-2.917-2.917c-1.079,0-2.019,0.587-2.523,1.458H4.375V33.958z"/>
</svg>
